<svg width="56" height="55" viewBox="0 0 56 55" fill="none" xmlns="http://www.w3.org/2000/svg">
<path d="M47.8007 8.32116C43.885 4.53387 38.8959 1.95453 33.4643 0.909334C28.0327 -0.135863 22.4026 0.40008 17.286 2.44937C12.1694 4.49867 7.7961 7.96935 4.7192 12.4223C1.6423 16.8753 0 22.1107 0 27.4663C0 32.822 1.6423 38.0574 4.7192 42.5104C7.7961 46.9633 12.1694 50.434 17.286 52.4833C22.4026 54.5326 28.0327 55.0685 33.4643 54.0233C38.8959 52.9781 43.885 50.3988 47.8007 46.6115C53.0507 41.5336 56 34.6469 56 27.4663C56 20.2857 53.0507 13.3991 47.8007 8.32116ZM7.3025 18.303C8.7134 15.2766 10.804 12.5924 13.4224 10.4455C16.0407 8.29863 19.1209 6.74302 22.4389 5.89191C25.757 5.0408 29.2295 4.91557 32.6039 5.5253C35.9783 6.13503 39.1697 7.46435 41.9462 9.41665C35.0734 8.78893 26.4698 12.1859 19.4953 18.9184C16.863 21.4598 14.6329 24.363 12.8771 27.534C10.489 24.7864 8.6037 21.6645 7.3025 18.303ZM22.7407 49.713C17.4263 48.336 12.7937 45.1718 9.6749 40.7886C6.5561 36.4055 5.1554 31.0907 5.7244 25.7985C8.6134 31.8664 15.9062 37.3804 25.4771 39.8421C29.0501 40.7793 32.748 41.1942 36.448 41.0728C35.1905 44.4367 33.353 47.5703 31.0134 50.3408C28.2378 50.6123 25.4342 50.3912 22.7407 49.6885V49.713ZM40.1644 23.977C39.2209 20.5061 37.7543 17.1884 35.8116 14.1306C39.4506 13.5041 43.1731 13.4792 46.8207 14.0567C48.4534 16.2425 49.657 18.6998 50.3716 21.3062C51.7979 26.4463 51.282 31.9098 48.9165 36.715C46.551 41.5202 42.4911 45.3521 37.4662 47.5223C41.4371 42.0945 42.7098 33.1957 40.1644 23.977Z" fill="#56CCF2"/>
</svg>
