<svg width="209" height="54" viewBox="0 0 209 54" fill="none" xmlns="http://www.w3.org/2000/svg">
<path d="M73.3621 12.6264V34.4414H77.8359V20.1892H78.017L83.6625 34.3349H86.7089L92.3544 20.2425H92.5355V34.4414H97.0092V12.6264H91.3211L85.3135 27.2834H85.0578L79.0502 12.6264H73.3621ZM105.39 34.7503C107.808 34.7503 109.373 33.6958 110.172 32.1726H110.3V34.4414H114.603V23.4061C114.603 19.5075 111.301 17.8671 107.658 17.8671C103.739 17.8671 101.161 19.7418 100.532 22.7244L104.729 23.0652C105.038 21.9787 106.007 21.1798 107.637 21.1798C109.182 21.1798 110.066 21.9574 110.066 23.2996V23.3635C110.066 24.418 108.947 24.5565 106.103 24.8334C102.865 25.1317 99.9571 26.2182 99.9571 29.8718C99.9571 33.1099 102.269 34.7503 105.39 34.7503ZM106.689 31.6187C105.294 31.6187 104.292 30.9689 104.292 29.7226C104.292 28.4444 105.347 27.8159 106.945 27.5923C107.935 27.4538 109.554 27.2194 110.098 26.8573V28.5935C110.098 30.3085 108.681 31.6187 106.689 31.6187ZM118.124 34.4414H122.662V25.1849C122.662 23.1717 124.132 21.787 126.134 21.787C126.763 21.787 127.625 21.8935 128.051 22.032V18.0056C127.647 17.9097 127.082 17.8458 126.624 17.8458C124.792 17.8458 123.29 18.911 122.694 20.9348H122.523V18.0801H118.124V34.4414ZM130.398 34.4414H134.935V18.0801H130.398V34.4414ZM132.677 15.9711C134.03 15.9711 135.138 14.9378 135.138 13.6703C135.138 12.4133 134.03 11.3801 132.677 11.3801C131.335 11.3801 130.227 12.4133 130.227 13.6703C130.227 14.9378 131.335 15.9711 132.677 15.9711ZM149.062 27.4751C149.073 29.6694 147.571 30.8198 145.941 30.8198C144.226 30.8198 143.119 29.6161 143.108 27.6881V18.0801H138.57V28.4977C138.581 32.3217 140.818 34.6544 144.109 34.6544C146.57 34.6544 148.338 33.3869 149.073 31.4695H149.243V34.4414H153.6V18.0801H149.062V27.4751ZM170.843 22.7457C170.438 19.7312 168.009 17.8671 163.876 17.8671C159.69 17.8671 156.931 19.8057 156.942 22.9587C156.931 25.4086 158.476 26.9958 161.671 27.6349L164.505 28.1994C165.932 28.487 166.582 29.009 166.603 29.8291C166.582 30.7985 165.527 31.4908 163.94 31.4908C162.321 31.4908 161.245 30.7985 160.968 29.467L156.505 29.7013C156.931 32.833 159.594 34.761 163.93 34.761C168.169 34.761 171.205 32.5986 171.215 29.3711C171.205 27.0064 169.66 25.5897 166.486 24.9399L163.525 24.3434C162.002 24.0132 161.437 23.4913 161.448 22.703C161.437 21.7231 162.545 21.084 163.951 21.084C165.527 21.084 166.465 21.9468 166.688 23.0013L170.843 22.7457Z" fill="white"/>
<path d="M40.1043 21.5499C41.3087 19.0902 45.0097 19.9477 45.0097 22.6864C45.0097 23.0803 44.9197 23.4689 44.7465 23.8226L36.641 40.3817C36.64 40.3837 36.6389 40.3856 36.6376 40.3875C36.6363 40.3893 36.6352 40.3912 36.6342 40.3932L36.6128 40.437C36.2982 41.0797 35.3312 40.8558 35.3312 40.1402V31.8962C35.3312 31.5022 35.4213 31.1135 35.5945 30.7596L40.1043 21.5499Z" fill="url(#paint0_linear)"/>
<path d="M51.7804 30.1097C54.0357 25.5041 60.9657 27.1097 60.9657 32.2379V39.0996C60.9657 41.7722 58.7991 43.9388 56.1265 43.9388C53.4539 43.9388 51.2874 41.7722 51.2874 39.0996V32.2379C51.2874 31.5002 51.456 30.7723 51.7804 30.1097Z" fill="url(#paint1_linear)"/>
<path d="M43.2545 11.001C44.0695 11.001 44.5234 11.943 44.0155 12.5804C44.0129 12.5841 44.01 12.5874 44.007 12.5907C43.9965 12.6016 43.9869 12.6141 43.9783 12.628C43.9776 12.6291 43.9765 12.6298 43.9752 12.6298C43.9741 12.6298 43.973 12.6303 43.9723 12.6312L19.7935 43.0054C19.7929 43.0063 19.7919 43.0067 19.7908 43.0067C19.7897 43.0067 19.7886 43.0073 19.788 43.0082C19.7799 43.0194 19.7738 43.028 19.7697 43.0316C19.7679 43.0332 19.7661 43.0355 19.7661 43.0378C19.7661 43.039 19.7656 43.0401 19.7647 43.0409C19.7598 43.0455 19.7551 43.0505 19.7508 43.0561C19.6536 43.1783 19.4627 43.0577 19.5315 42.9175L20.929 40.0672C20.9367 40.0453 20.9482 40.0288 20.9558 40.0069L34.1319 13.1001C34.761 11.8154 36.0667 11.001 37.4971 11.001H43.2545Z" fill="url(#paint2_linear)"/>
<path d="M45.0095 11.33C45.0437 11.2874 45.1103 11.3299 45.086 11.3789L45.0095 11.5329L35.331 31.298L30.1441 41.8959C29.5141 43.1832 28.2059 43.9994 26.7727 43.9994H20.0277C19.6124 43.9994 19.3808 43.5197 19.639 43.1945L19.7869 43.0082C19.7876 43.0073 19.7888 43.0067 19.79 43.0067C19.7912 43.0067 19.7923 43.0062 19.7931 43.0052L43.9728 12.6298L45.0095 11.33Z" fill="url(#paint3_linear)"/>
<path d="M60.8607 11.0006C60.974 11.0006 61.0368 11.1317 60.966 11.22L59.4052 13.1839L59.4046 13.1847C59.4025 13.1878 59.4001 13.1907 59.3974 13.1935C59.39 13.2012 59.3851 13.2113 59.3775 13.2189C59.3765 13.2199 59.3755 13.2209 59.3746 13.2223C59.3727 13.225 59.3717 13.2264 59.3708 13.2271C59.369 13.2283 59.3669 13.2295 59.3669 13.2317C59.3669 13.2327 59.3666 13.2336 59.3659 13.2344L59.3363 13.2661C59.323 13.2789 59.3099 13.2936 59.2981 13.31L51.2877 23.3735L45.01 31.2598L36.1578 42.3708L36.1272 42.4146C36.1167 42.4306 36.1052 42.4453 36.0928 42.4585L35.3315 43.4128C35.2726 43.4875 35.156 43.4141 35.1979 43.3286L35.3315 43.0563L36.6346 40.394C36.6355 40.392 36.6367 40.39 36.6379 40.3882C36.6392 40.3864 36.6403 40.3845 36.6413 40.3825L45.01 23.2852L50.0027 13.0927C50.6299 11.8123 51.9313 11.0006 53.3571 11.0006H60.8607Z" fill="url(#paint4_linear)"/>
<path d="M60.9657 11.2194C60.9884 11.1913 61.0323 11.2196 61.0161 11.2518L60.9661 11.3516L51.2878 31.1166L45.0102 43.9387C44.9939 43.9754 44.9575 43.999 44.9174 43.999H35.6158C35.3131 43.999 35.1438 43.6499 35.3313 43.4122L36.1576 42.3702L45.0098 31.2592L51.2874 23.373L59.2978 13.3095L59.3361 13.2656L59.3362 13.2654C59.3387 13.2619 59.3414 13.2586 59.3444 13.2555L59.3656 13.2338C59.3663 13.2331 59.3667 13.2321 59.3667 13.2311C59.3667 13.2289 59.3686 13.227 59.3699 13.2253C59.3704 13.2246 59.3709 13.2237 59.3715 13.2231C59.3729 13.2216 59.3751 13.2208 59.3763 13.2192L60.9657 11.2194Z" fill="url(#paint5_linear)"/>
<g style="mix-blend-mode:multiply" opacity="0.24">
<g style="mix-blend-mode:multiply" opacity="0.24">
<path d="M40.7975 20.1342C41.8318 18.0222 45.0097 18.7585 45.0097 21.1102C45.0097 21.6692 44.7987 22.2076 44.4189 22.6178L36.0383 31.669C35.7862 31.9412 35.3312 31.7628 35.3312 31.3919C35.3312 31.3297 35.3454 31.2684 35.3727 31.2125L40.7975 20.1342Z" fill="black"/>
</g>
</g>
<g style="mix-blend-mode:multiply" opacity="0.24">
<g style="mix-blend-mode:multiply" opacity="0.24">
<path d="M56.8091 19.8402C57.8297 17.756 60.9657 18.4826 60.9657 20.8033V21.5951C60.9657 21.6486 60.9452 21.7 60.9083 21.7387L51.9192 31.4487C51.694 31.692 51.2874 31.5326 51.2874 31.2011C51.2874 31.1456 51.3001 31.0908 51.3245 31.0409L56.8091 19.8402Z" fill="black"/>
</g>
</g>
<g style="mix-blend-mode:overlay">
<g style="mix-blend-mode:overlay">
<path d="M43.9726 12.6294L19.7917 43.0064C19.7892 43.0099 19.789 43.0047 19.7915 43.0011C19.9025 42.8425 20.2374 42.3843 20.7519 41.6847C21.3984 40.8237 22.3088 39.5678 23.4259 38.109C24.5429 36.6502 25.8398 34.9281 27.2476 33.1238C28.6553 31.308 30.1664 29.4001 31.6813 27.4861C32.4388 26.5373 33.2 25.5886 33.9498 24.6557C34.6996 23.7228 35.4418 22.8136 36.1571 21.9306C37.5917 20.1647 38.9536 18.5573 40.1089 17.1539C41.2642 15.7505 42.2511 14.6311 42.9321 13.8244L43.9726 12.6294Z" fill="white"/>
</g>
</g>
<g style="mix-blend-mode:overlay">
<g style="mix-blend-mode:overlay">
<path d="M58.3642 14.3727C58.8195 13.8517 59.1408 13.4843 59.2977 13.3093L51.2869 23.3728L45.0093 31.2591L36.1571 42.3701C36.2833 42.1946 36.597 41.7668 37.0561 41.1356C37.6758 40.308 38.548 39.1015 39.623 37.6976C40.698 36.2936 41.9374 34.6429 43.2916 32.9044C44.6459 31.1659 46.0957 29.3287 47.5456 27.4915C48.2763 26.5751 49.0069 25.6652 49.7261 24.7713C50.4453 23.8774 51.1607 22.9999 51.8493 22.1554C53.2264 20.4607 54.5386 18.9142 55.648 17.5706C56.7574 16.2269 57.7101 15.1465 58.3642 14.3727Z" fill="white"/>
</g>
</g>
<g style="mix-blend-mode:screen" opacity="0.4">
<g style="mix-blend-mode:screen" opacity="0.4">
<path d="M59.3698 13.2259C59.3726 13.2232 59.3748 13.225 59.3719 13.2276C59.3705 13.2288 59.3689 13.2302 59.3672 13.2325C59.3641 13.2358 59.3611 13.2333 59.3642 13.23C59.3648 13.2294 59.3654 13.2288 59.366 13.2282C59.3668 13.2274 59.3678 13.2271 59.3687 13.2267C59.3691 13.2265 59.3695 13.2262 59.3698 13.2259Z" fill="white"/>
</g>
</g>
<g style="mix-blend-mode:multiply" opacity="0.25">
<g style="mix-blend-mode:multiply" opacity="0.25">
<path d="M45.2735 11.001C45.1855 11.1984 45.0975 11.3904 45.0095 11.5823C44.4586 12.7992 43.9001 14.0063 43.3454 15.2183C42.7027 16.6223 42.0448 18.0153 41.3868 19.4082C40.0785 22.1935 38.7587 24.9685 37.4274 27.7333L35.419 31.8738C35.3975 31.918 35.331 31.9027 35.331 31.8536V31.6753C35.331 31.5827 35.2059 31.5537 35.1652 31.6368L29.8994 42.3958C29.4191 43.3772 28.4219 43.9994 27.3293 43.9994H19C20.6832 43.8952 22.3703 43.8508 24.0573 43.7745L24.5319 43.7629C27.2595 43.6961 29.7252 42.1015 30.9011 39.6394L32.9057 35.5044L34.9255 31.3742L36.9569 27.2611C38.3149 24.5245 39.6883 21.8006 41.0769 19.0896C41.7655 17.7345 42.4541 16.3749 43.158 15.0313C43.8619 13.6877 44.5581 12.3353 45.2735 11.001Z" fill="black"/>
</g>
</g>
<g style="mix-blend-mode:multiply" opacity="0.25">
<g style="mix-blend-mode:multiply" opacity="0.25">
<path d="M61.1421 11.0006C61.0847 11.1322 61.0273 11.2638 60.9661 11.39C60.3923 12.6733 59.7993 13.9456 59.214 15.218C58.5752 16.6219 57.9134 18.0149 57.2592 19.4079C55.9511 22.1931 54.63 24.9681 53.2962 27.7329L51.4536 31.5316C51.4132 31.615 51.2878 31.5861 51.2878 31.4935C51.2878 31.4009 51.1628 31.372 51.1221 31.4551L45.0102 43.9387C44.9939 43.9754 44.9575 43.999 44.9174 43.999H34.8684C36.5554 43.8948 38.2387 43.8504 39.9257 43.7742L40.4058 43.7624C43.1313 43.6957 45.5945 42.0992 46.7695 39.6391L48.7779 35.504L50.7939 31.3738L52.8253 27.2607C54.1833 24.5241 55.5567 21.8003 56.9453 19.0892C57.6337 17.7341 58.3223 16.3746 59.03 15.0309C59.7301 13.6824 60.4263 12.3349 61.1421 11.0006Z" fill="black"/>
</g>
</g>
<g style="mix-blend-mode:multiply" opacity="0.25">
<g style="mix-blend-mode:multiply" opacity="0.25">
<path d="M60.9657 20.2524V34.2603C60.9657 39.6055 56.6326 43.9387 51.2874 43.9387C52.0945 43.8674 52.9017 43.8235 53.7089 43.7742C54.5161 43.7248 55.3194 43.6919 56.1266 43.6535C58.6483 43.5533 60.6624 41.5027 60.6625 38.979C60.6625 38.6581 60.6628 38.337 60.6635 38.0157C60.6673 36.0414 60.675 34.0671 60.6979 32.0928C60.7209 30.1185 60.7438 28.1491 60.7897 26.1754C60.805 25.1882 60.8356 24.2011 60.8662 23.2139C60.8777 22.7203 60.893 22.2328 60.9083 21.7392C60.9236 21.2456 60.9427 20.7455 60.9657 20.2524Z" fill="black"/>
</g>
</g>
<g style="mix-blend-mode:overlay">
<g style="mix-blend-mode:overlay">
<path d="M58.158 11.0006C56.9684 11.0878 55.7787 11.1267 54.5928 11.1925C52.4789 11.2932 50.5916 12.5194 49.6763 14.4275C49.6016 14.5834 49.5266 14.739 49.4513 14.8943L47.6725 18.5907L45.8783 22.2706L44.0727 25.9395L42.2441 29.5865L40.3964 33.206C39.7767 34.4126 39.1646 35.624 38.5334 36.8146C37.9022 38.0053 37.2825 39.2057 36.6398 40.3849L45.0099 23.2846L48.2836 16.6015C49.9629 13.1733 53.4474 11.0002 57.2648 11.0005L58.158 11.0006Z" fill="white"/>
</g>
</g>
<g style="mix-blend-mode:overlay">
<g style="mix-blend-mode:overlay">
<path d="M43.6213 11.0006C42.2097 11.0993 40.7981 11.1432 39.3903 11.22L39.1935 11.2258C36.7985 11.2966 34.6353 12.7019 33.61 14.8675L31.8464 18.514L30.0676 22.1505L28.2772 25.7701L26.4716 29.3732L24.643 32.9538C24.0309 34.1499 23.4265 35.3455 22.7991 36.5246C22.1896 37.6891 21.5801 38.8546 20.9597 40.0092C20.9567 40.0149 20.9531 40.0131 20.9552 40.0071L32.4162 16.6028C34.095 13.1745 37.5792 11.001 41.3965 11.0008L43.6213 11.0006Z" fill="white"/>
</g>
</g>
<defs>
<linearGradient id="paint0_linear" x1="40.1704" y1="38.5161" x2="40.1704" y2="21.1154" gradientUnits="userSpaceOnUse">
<stop stop-color="#F58033"/>
<stop offset="1" stop-color="#A53826"/>
</linearGradient>
<linearGradient id="paint1_linear" x1="56.1266" y1="43.6455" x2="56.1266" y2="20.7693" gradientUnits="userSpaceOnUse">
<stop stop-color="#00F3FF"/>
<stop offset="0.238" stop-color="#00EFFC"/>
<stop offset="0.44" stop-color="#00E5F4"/>
<stop offset="0.629" stop-color="#00D3E7"/>
<stop offset="0.81" stop-color="#00BAD4"/>
<stop offset="0.983" stop-color="#009BBC"/>
<stop offset="1" stop-color="#0098BA"/>
</linearGradient>
<linearGradient id="paint2_linear" x1="29.3" y1="25.5533" x2="46.5138" y2="10.9912" gradientUnits="userSpaceOnUse">
<stop stop-color="#F804DE"/>
<stop offset="0.074" stop-color="#F803CC"/>
<stop offset="0.293" stop-color="#F9029D"/>
<stop offset="0.501" stop-color="#FA0178"/>
<stop offset="0.695" stop-color="#FB005D"/>
<stop offset="0.867" stop-color="#FB004D"/>
<stop offset="1" stop-color="#FC0048"/>
</linearGradient>
<linearGradient id="paint3_linear" x1="19" y1="27.5002" x2="45.2735" y2="27.5002" gradientUnits="userSpaceOnUse">
<stop stop-color="#F804DE"/>
<stop offset="0.074" stop-color="#F803CC"/>
<stop offset="0.293" stop-color="#F9029D"/>
<stop offset="0.501" stop-color="#FA0178"/>
<stop offset="0.695" stop-color="#FB005D"/>
<stop offset="0.867" stop-color="#FB004D"/>
<stop offset="1" stop-color="#FC0048"/>
</linearGradient>
<linearGradient id="paint4_linear" x1="47.7952" y1="25.1901" x2="63.9968" y2="7.62472" gradientUnits="userSpaceOnUse">
<stop stop-color="#FCFC53"/>
<stop offset="1" stop-color="#F8A700"/>
</linearGradient>
<linearGradient id="paint5_linear" x1="34.8684" y1="27.4998" x2="61.1421" y2="27.4998" gradientUnits="userSpaceOnUse">
<stop stop-color="#FCFC53"/>
<stop offset="1" stop-color="#F8A700"/>
</linearGradient>
</defs>
</svg>
